<svg width="40" height="41" viewBox="0 0 40 41" fill="none" xmlns="http://www.w3.org/2000/svg">
<circle cx="20" cy="20.873" r="20" fill="#a4d0ea"/>
<path d="M22.7812 22.373C21.875 22.373 21.4688 22.873 20 22.873C18.5 22.873 18.0938 22.373 17.1875 22.373C14.875 22.373 13 24.2793 13 26.5918V27.373C13 28.2168 13.6562 28.873 14.5 28.873H25.5C26.3125 28.873 27 28.2168 27 27.373V26.5918C27 24.2793 25.0938 22.373 22.7812 22.373ZM25.5 27.373H14.5V26.5918C14.5 25.0918 15.6875 23.873 17.1875 23.873C17.6562 23.873 18.375 24.373 20 24.373C21.5938 24.373 22.3125 23.873 22.7812 23.873C24.2812 23.873 25.5 25.0918 25.5 26.5918V27.373ZM20 21.873C22.4688 21.873 24.5 19.873 24.5 17.373C24.5 14.9043 22.4688 12.873 20 12.873C17.5 12.873 15.5 14.9043 15.5 17.373C15.5 19.873 17.5 21.873 20 21.873ZM20 14.373C21.625 14.373 23 15.748 23 17.373C23 19.0293 21.625 20.373 20 20.373C18.3438 20.373 17 19.0293 17 17.373C17 15.748 18.3438 14.373 20 14.373Z" fill="#1685be"/>
</svg>
