<?xml version="1.0" encoding="UTF-8" standalone="no"?>
<!-- Created with Inkscape (http://www.inkscape.org/) -->

<svg
   xmlns:dc="http://purl.org/dc/elements/1.1/"
   xmlns:cc="http://creativecommons.org/ns#"
   xmlns:rdf="http://www.w3.org/1999/02/22-rdf-syntax-ns#"
   xmlns:svg="http://www.w3.org/2000/svg"
   xmlns="http://www.w3.org/2000/svg"
   xmlns:sodipodi="http://sodipodi.sourceforge.net/DTD/sodipodi-0.dtd"
   xmlns:inkscape="http://www.inkscape.org/namespaces/inkscape"
   version="1.1"
   id="svg29"
   xml:space="preserve"
   width="302.35999"
   height="65.626663"
   viewBox="0 0 302.35999 65.626663"
   sodipodi:docname="planradar_logo.svg"
   inkscape:version="0.92.5 (2060ec1f9f, 2020-04-08)"><metadata
     id="metadata35"><rdf:RDF><cc:Work
         rdf:about=""><dc:format>image/svg+xml</dc:format><dc:type
           rdf:resource="http://purl.org/dc/dcmitype/StillImage" /><dc:title></dc:title></cc:Work></rdf:RDF></metadata><defs
     id="defs33" /><sodipodi:namedview
     pagecolor="#ffffff"
     bordercolor="#666666"
     borderopacity="1"
     objecttolerance="10"
     gridtolerance="10"
     guidetolerance="10"
     inkscape:pageopacity="0"
     inkscape:pageshadow="2"
     inkscape:window-width="1920"
     inkscape:window-height="1021"
     id="namedview31"
     showgrid="false"
     inkscape:zoom="5.7084273"
     inkscape:cx="151.17999"
     inkscape:cy="32.813332"
     inkscape:window-x="0"
     inkscape:window-y="27"
     inkscape:window-maximized="1"
     inkscape:current-layer="g39" /><g
     id="g37"
     inkscape:groupmode="layer"
     inkscape:label="ink_ext_XXXXXX"
     transform="matrix(1.3333333,0,0,-1.3333333,0,65.626667)"><g
       id="g39"
       transform="scale(0.1)"><path
         d="m 445.66,492.18 h -38.84 c 0.2,-0.407 0.422,-0.805 0.641,-1.215 9.355,-18.606 17.535,-37.785 24.383,-57.422 7.109,-20.406 12.828,-41.422 16.937,-62.887 7.789,-40.754 9.239,-81.008 4.254,-119.508 -5.469,-42.175 -18.68,-82.425 -39.754,-118.554 C 390.082,92.8398 357.473,58.2617 315.805,32.3633 294.262,18.9727 270.469,8.04297 244.68,0 h 200.98 c 25.692,0 46.504,20.8164 46.504,46.5039 V 445.676 c 0,25.683 -20.812,46.504 -46.504,46.504"
         style="fill:#1f64b8;fill-opacity:1;fill-rule:nonzero;stroke:none"
         id="path41"
         inkscape:connector-curvature="0" /><path
         d="m 420.277,382.219 c -3.238,19.726 -8.023,39.109 -14.164,57.972 -5.769,17.735 -12.793,35.098 -20.906,51.989 h -26.496 c 5.988,-13.774 11.203,-27.813 15.457,-42.09 5.23,-17.574 9.105,-35.559 11.48,-53.801 4.454,-34.34 3.137,-67.742 -3.824,-99.141 -7.539,-33.937 -21.703,-65.617 -42.328,-93.312 -22.336,-30.016 -52.133,-55.195 -88.734,-73.043 -39.371,-19.199 -85.965,-29.613 -137.946,-28.266 -7.55,0.188 -15.1754,0.637 -22.8668,1.332 -7.7344,0.707 -15.5312,1.668 -23.3476,2.887 -7.8828,1.215 -15.7891,2.699 -23.711,4.442 -7.9687,1.742 -15.9492,3.75 -23.9258,6.015 C 12.5859,119.016 6.27734,121.016 0,123.121 V 79.4883 C 15.1289,73.5156 30.4766,68.3789 46,64.1797 54.4766,61.875 62.957,59.8555 71.4297,58.125 c 8.418,-1.7187 16.8125,-3.1484 25.1601,-4.2891 8.3012,-1.1328 16.5472,-1.9882 24.7262,-2.5546 8.129,-0.5665 16.172,-0.8555 24.129,-0.8555 55.465,-0.0117 104.578,13.1445 145.485,35.9726 37.808,21.0816 68.004,50.0666 90.05,84.0706 20.219,31.195 33.497,66.472 39.754,103.883 5.77,34.429 5.618,70.765 -0.457,107.867"
         style="fill:#1f64b8;fill-opacity:1;fill-rule:nonzero;stroke:none"
         id="path43"
         inkscape:connector-curvature="0" /><path
         d="m 355.953,408.375 c -1.644,16.5 -4.719,32.813 -9.074,48.805 -3.227,11.82 -7.168,23.504 -11.766,35 h -29.242 c 2.781,-8.121 5.227,-16.305 7.234,-24.555 3.551,-14.668 5.872,-29.578 6.79,-44.582 1.734,-28.027 -1.567,-54.848 -9.653,-79.598 -8.625,-26.414 -22.676,-50.5 -41.804,-70.988 -20.411,-21.871 -46.489,-39.516 -77.45,-51.238 -32.812,-12.43 -70.664,-18.024 -112.0192,-14.91 -5.9805,0.449 -11.9922,1.086 -18.0508,1.902 -6.086,0.82 -12.2188,1.824 -18.3516,3.012 -6.1601,1.187 -12.3437,2.558 -18.5195,4.121 -6.2071,1.562 -12.3946,3.308 -18.57034,5.238 C 3.63672,221.16 1.83594,221.852 0,222.457 v -38.242 c 9.92969,-3.945 20.0039,-7.5 30.2539,-10.586 6.6524,-1.996 13.3086,-3.793 19.9649,-5.387 6.6289,-1.586 13.2421,-2.961 19.832,-4.129 6.5586,-1.172 13.0937,-2.133 19.5859,-2.89 6.4649,-0.754 12.8943,-1.301 19.2583,-1.641 44.703,-2.398 85.171,5.125 119.828,20.273 32.523,14.219 59.449,34.946 80.097,60.176 19.227,23.504 32.887,50.782 40.696,80.379 7.285,27.59 9.496,57.227 6.437,87.965"
         style="fill:#1f64b8;fill-opacity:1;fill-rule:nonzero;stroke:none"
         id="path45"
         inkscape:connector-curvature="0" /><path
         d="m 288.91,435.652 c -0.371,13.266 -2.015,26.489 -4.816,39.536 -1.231,5.691 -2.703,11.355 -4.36,16.992 h -32.703 c 0.43,-1.977 0.852,-3.957 1.219,-5.938 2.125,-11.695 3.148,-23.5 2.996,-35.285 -0.285,-21.836 -4.738,-42.371 -12.996,-60.965 -8.691,-19.582 -21.617,-37.012 -38.277,-51.402 -17.539,-15.141 -39.133,-26.856 -64.067,-34.024 -26.039,-7.5 -55.4177,-9.964 -86.9372,-6.246 -4.5508,0.535 -9.1211,1.2 -13.7071,1.989 -4.5898,0.796 -9.2031,1.714 -13.8164,2.757 -4.6445,1.055 -9.2773,2.227 -13.90233,3.532 -2.52344,0.715 -5.02344,1.558 -7.54297,2.34 v -34 c 5.47266,-2.137 10.9844,-4.157 16.5547,-5.977 5.0273,-1.648 10.0781,-3.164 15.1289,-4.531 5.043,-1.364 10.0742,-2.578 15.1016,-3.657 5.0117,-1.07 10.0117,-1.992 14.9843,-2.773 4.9571,-0.777 9.8946,-1.406 14.7969,-1.895 34.7036,-3.441 66.7536,0.297 94.8676,9.805 26.754,9.047 49.632,23.211 67.875,41.137 17.238,16.953 30.261,37.187 38.632,59.652 7.907,21.227 11.668,44.461 10.969,68.953"
         style="fill:#1f64b8;fill-opacity:1;fill-rule:nonzero;stroke:none"
         id="path47"
         inkscape:connector-curvature="0" /><path
         d="m 8.01172,422.223 c 2.34768,-0.641 4.71098,-1.215 7.05858,-1.739 2.3438,-0.515 4.6836,-0.98 7.0235,-1.39 16.7929,-2.906 32.8203,-2.774 47.4648,-0.043 14.3008,2.656 27.1719,7.781 38.1214,14.914 10.64,6.941 19.418,15.758 25.933,26.051 6.047,9.543 10.082,20.382 11.942,32.164 H 46.4961 C 20.8242,492.18 0,471.359 0,445.676 v -21.039 c 0.316406,-0.106 0.632813,-0.227 0.949219,-0.328 2.351561,-0.754 4.703121,-1.45 7.062501,-2.086"
         style="fill:#1f64b8;fill-opacity:1;fill-rule:nonzero;stroke:none"
         id="path49"
         inkscape:connector-curvature="0" /><path
         d="m 217.66,492.18 h -37.512 c 0.02,-4.043 -0.14,-8.09 -0.519,-12.129 -1.539,-15.785 -6.242,-30.371 -13.727,-43.313 -7.789,-13.441 -18.574,-25.101 -31.914,-34.433 -13.832,-9.676 -30.355,-16.801 -48.9294,-20.731 -19.1758,-4.047 -40.3789,-4.664 -62.7617,-1.191 -3.2266,0.496 -6.4571,1.082 -9.7149,1.754 -3.25778,0.672 -6.51559,1.429 -9.78512,2.269 C 1.86328,384.645 0.9375,384.938 0,385.188 v -30.852 c 1.52734,-0.566 3.03516,-1.18 4.57422,-1.719 3.59766,-1.254 7.21488,-2.426 10.83988,-3.496 3.6015,-1.066 7.2265,-2.043 10.8437,-2.93 3.6133,-0.878 7.211,-1.664 10.8125,-2.351 3.5781,-0.684 7.1524,-1.281 10.711,-1.774 25.4296,-3.527 49.3203,-2.132 70.7267,3.34 20.66,5.285 38.797,14.309 53.769,26.258 14.352,11.457 25.731,25.559 33.676,41.59 7.594,15.351 12.047,32.484 12.985,50.855 0.472,9.344 0,18.731 -1.278,28.071"
         style="fill:#1f64b8;fill-opacity:1;fill-rule:nonzero;stroke:none"
         id="path51"
         inkscape:connector-curvature="0" /><path
         d="m 692.852,237.473 c 21.199,0 27.152,8.179 27.152,25.652 v 38.68 c 0,17.843 -7.445,24.164 -29.762,24.164 H 626.555 V 237.473 Z M 568.547,366.5 h 136.574 c 47.969,0 69.535,-19.336 69.535,-59.125 V 257.18 c 0,-40.903 -23.422,-59.864 -71.765,-59.864 H 626.555 V 109.191 H 568.547 V 366.5"
         style="fill:#363c42;fill-opacity:1;fill-rule:nonzero;stroke:none"
         id="path53"
         inkscape:connector-curvature="0" /><path
         d="m 1092.97,304.031 h 48.33 l 1.49,-16.73 c 13,12.637 31.98,21.187 53.54,21.187 h 24.17 c 30.5,0 49.83,-12.636 49.83,-43.508 V 109.191 h -51.68 v 142.782 c 0,11.902 -8.94,14.875 -18.97,14.875 h -20.82 c -14.51,0 -27.52,-2.231 -34.21,-4.094 V 109.191 h -51.68 v 194.84"
         style="fill:#363c42;fill-opacity:1;fill-rule:nonzero;stroke:none"
         id="path55"
         inkscape:connector-curvature="0" /><path
         d="m 1420.08,241.559 c 23.43,0 31.61,7.437 31.61,28.632 v 28.629 c 0,20.453 -10.42,26.407 -33.84,26.407 H 1357.5 V 241.559 Z M 1299.88,366.5 h 139.54 c 50.19,0 67.31,-24.547 67.31,-60.98 v -42.395 c 0,-31.973 -21.58,-57.258 -56.15,-57.258 h -6.7 l 69.91,-96.676 h -66.56 l -61.36,93.325 h -28.37 v -93.325 h -57.62 V 366.5"
         style="fill:#363c42;fill-opacity:1;fill-rule:nonzero;stroke:none"
         id="path57"
         inkscape:connector-curvature="0" /><path
         d="m 1622.1,140.793 c 13.76,0 26.03,5.203 26.03,26.031 v 29.746 h -48.34 c -14.12,0 -21.56,-5.203 -21.56,-18.222 v -19.707 c 0,-13.391 9.3,-17.848 20.83,-17.848 z m -95.18,11.527 v 21.567 c 0,35.695 21.93,52.433 57.25,52.433 h 63.96 v 23.418 c 0,14.137 -6.32,18.227 -22.69,18.227 h -84.39 v 31.973 c 11.89,6.324 33.46,8.55 50.94,8.55 h 48.34 c 34.58,0 59.49,-14.504 59.49,-51.308 V 109.191 h -46.12 v 19.704 h -0.73 c -6.33,-11.161 -18.59,-24.168 -44.25,-24.168 h -29.37 c -33.48,0 -52.43,20.074 -52.43,47.593"
         style="fill:#363c42;fill-opacity:1;fill-rule:nonzero;stroke:none"
         id="path59"
         inkscape:connector-curvature="0" /><path
         d="m 985.711,140.793 c 13.754,0 26.029,5.203 26.029,26.031 v 29.746 h -48.342 c -14.128,0 -21.562,-5.203 -21.562,-18.222 v -19.707 c 0,-13.391 9.297,-17.848 20.816,-17.848 z m -95.184,11.527 v 21.567 c 0,35.695 21.938,52.433 57.254,52.433 h 63.959 v 23.418 c 0,14.137 -6.32,18.227 -22.685,18.227 h -84.403 v 31.973 c 11.899,6.324 33.465,8.55 50.938,8.55 h 48.34 c 34.58,0 59.5,-14.504 59.5,-51.308 V 109.191 h -46.11 v 19.704 h -0.74 c -6.32,-11.161 -18.6,-24.168 -44.252,-24.168 h -29.375 c -33.473,0 -52.426,20.074 -52.426,47.593"
         style="fill:#363c42;fill-opacity:1;fill-rule:nonzero;stroke:none"
         id="path61"
         inkscape:connector-curvature="0" /><path
         d="m 2031.44,140.793 c 13.75,0 26.02,5.203 26.02,26.031 v 29.746 h -48.34 c -14.12,0 -21.56,-5.203 -21.56,-18.222 v -19.707 c 0,-13.391 9.3,-17.848 20.82,-17.848 z m -95.2,11.527 v 21.567 c 0,35.695 21.95,52.433 57.27,52.433 h 63.95 v 23.418 c 0,14.137 -6.31,18.227 -22.68,18.227 h -84.41 v 31.973 c 11.91,6.324 33.47,8.55 50.94,8.55 h 48.34 c 34.59,0 59.5,-14.504 59.5,-51.308 V 109.191 h -46.11 v 19.704 h -0.74 c -6.32,-11.161 -18.6,-24.168 -44.25,-24.168 h -29.37 c -33.47,0 -52.44,20.074 -52.44,47.593"
         style="fill:#363c42;fill-opacity:1;fill-rule:nonzero;stroke:none"
         id="path63"
         inkscape:connector-curvature="0" /><path
         d="m 1819.72,143.77 c 15.24,0 27.89,3.347 35.32,5.574 v 112.293 c -7.81,4.468 -23.04,8.554 -37.18,8.554 h -17.48 c -13.01,0 -19.32,-5.211 -19.32,-23.054 v -83.66 c 0,-17.844 10.77,-19.707 21.19,-19.707 z m -90.36,6.695 v 103.742 c 0,35.695 23.8,54.281 57.65,54.281 h 25.65 c 17.47,0 33.09,-5.211 42.38,-14.504 V 366.5 h 51.68 V 109.191 h -50.19 v 17.106 c -11.91,-13.016 -27.88,-21.57 -48.33,-21.57 h -30.5 c -27.51,0 -48.34,13.378 -48.34,45.738"
         style="fill:#363c42;fill-opacity:1;fill-rule:nonzero;stroke:none"
         id="path65"
         inkscape:connector-curvature="0" /><path
         d="m 2138.69,304.031 h 47.59 l 2.24,-17.476 c 13.02,12.265 32.72,20.82 55.4,20.82 6.33,0 15.61,-0.371 23.8,-1.488 v -43.875 h -24.91 c -18.97,0 -40.53,-3.344 -52.44,-7.805 V 109.191 h -51.68 v 194.84"
         style="fill:#363c42;fill-opacity:1;fill-rule:nonzero;stroke:none"
         id="path67"
         inkscape:connector-curvature="0" /><path
         d="m 869.59,139.578 c -16.906,5.149 -22.567,10.274 -22.567,31.352 V 366.5 H 795.59 V 163.914 c 0,-49.207 30.351,-59.187 64.375,-59.187 2.328,-0.004 5.719,0.148 9.625,0.503 0,18.723 0,34.348 0,34.348"
         style="fill:#363c42;fill-opacity:1;fill-rule:nonzero;stroke:none"
         id="path69"
         inkscape:connector-curvature="0" /></g></g></svg>